<svg width="394" height="94" viewBox="0 0 394 94" fill="none" xmlns="http://www.w3.org/2000/svg">
<path d="M0 8C7.01545e-07 12.4183 3.58172 16 8 16C12.4183 16 16 12.4183 16 8C16 3.58172 12.4183 -2.12666e-07 8 0C3.58172 2.12666e-07 -7.01545e-07 3.58172 0 8ZM384.041 9.49998C384.87 9.49998 385.541 8.82841 385.541 7.99998C385.541 7.17155 384.87 6.49998 384.041 6.49998L384.041 9.49998ZM8 9.5L384.041 9.49998L384.041 6.49998L8 6.5L8 9.5Z" fill="#D4D2E3"/>
<path d="M386 1.07812C381.582 1.07812 378 4.65985 378 9.07812C378 13.4964 381.582 17.0781 386 17.0781C390.418 17.0781 394 13.4964 394 9.07812C394 4.65985 390.418 1.07812 386 1.07812ZM386 77.9998C381.582 77.9998 378 81.5815 378 85.9998C378 90.4181 381.582 93.9998 386 93.9998C390.418 93.9998 394 90.4181 394 85.9998C394 81.5815 390.418 77.9998 386 77.9998ZM384.5 9.07812V85.9998H387.5V9.07812H384.5Z" fill="#D4D2E3"/>
<path d="M8 0.078125C3.58172 0.078125 0 3.65985 0 8.07812C0 12.4964 3.58172 16.0781 8 16.0781C12.4183 16.0781 16 12.4964 16 8.07812C16 3.65985 12.4183 0.078125 8 0.078125ZM8 76.9998C3.58172 76.9998 0 80.5815 0 84.9998C0 89.4181 3.58172 92.9998 8 92.9998C12.4183 92.9998 16 89.4181 16 84.9998C16 80.5815 12.4183 76.9998 8 76.9998ZM6.5 8.07812L6.5 84.9998H9.5L9.5 8.07812H6.5Z" fill="#D4D2E3"/>
</svg>
