<svg width="52" height="53" viewBox="0 0 52 53" fill="none" xmlns="http://www.w3.org/2000/svg">
<g style="mix-blend-mode:multiply">
<rect width="51.7546" height="52.3041" rx="10" transform="matrix(-1 0 0 1 51.7539 0)" fill="#D4D2E3"/>
</g>
<path d="M26.6628 39C19.6876 39 14.0332 32.9558 14.0332 25.5C14.0332 18.0442 19.6876 12 26.6628 12C33.6378 12 39.2923 18.0442 39.2923 25.5C39.2923 32.9558 33.6378 39 26.6628 39ZM26.6628 36.3C32.2429 36.3 36.7664 31.4647 36.7664 25.5C36.7664 19.5353 32.2429 14.7 26.6628 14.7C21.0827 14.7 16.5591 19.5353 16.5591 25.5C16.5591 31.4647 21.0827 36.3 26.6628 36.3ZM27.9257 25.5H32.9775V28.2H25.3998V18.75H27.9257V25.5Z" fill="black"/>
</svg>
