<svg width="81" height="72" viewBox="0 0 81 72" fill="none" xmlns="http://www.w3.org/2000/svg">
<path d="M40.742 71.239C29.0229 71.239 17.3038 71.239 5.58474 71.239C5.01227 71.239 4.4324 71.239 3.85747 71.1798C0.923584 70.9059 -0.255893 68.9294 0.995142 66.2571C2.08085 63.95 3.26526 61.702 4.41513 59.4196C9.84369 48.6727 15.2722 37.9275 20.7008 27.1839C20.8686 26.8557 21.0438 26.5275 21.2387 26.2141C22.6057 24.023 24.8265 23.7145 26.576 25.6046C27.8097 26.9272 28.8535 28.4127 29.954 29.8463C35.5471 37.1551 41.1401 44.4672 46.7332 51.7826C49.176 54.9657 52.253 55.1384 55.1228 52.2761C56.5465 50.8548 57.9382 49.3965 59.3792 47.9875C61.9775 45.446 64.9262 45.599 67.0483 48.5625C71.3073 54.5092 75.4601 60.5349 79.6327 66.5409C79.9588 67.012 80.2086 67.5317 80.3729 68.0806C80.7776 69.4599 80.2051 70.5703 78.8061 70.938C77.9288 71.148 77.0282 71.245 76.1263 71.2267C64.3381 71.2464 52.5434 71.2505 40.742 71.239Z" fill="#D4D2E3"/>
<path d="M67.0236 12.3516C67.0206 14.6454 66.3366 16.8867 65.0582 18.7914C63.7799 20.696 61.9648 22.1781 59.8431 23.0499C57.7213 23.9217 55.3885 24.1439 53.1404 23.6882C50.8922 23.2326 48.83 22.1197 47.2151 20.4906C45.6003 18.8615 44.5055 16.7896 44.0696 14.5376C43.6336 12.2855 43.8762 9.95477 44.7666 7.84076C45.6569 5.72675 47.1549 3.92472 49.0707 2.66311C50.9864 1.40149 53.2336 0.737127 55.5274 0.754228C58.5818 0.793043 61.4987 2.03054 63.6492 4.19996C65.7997 6.36937 67.0115 9.29695 67.0236 12.3516Z" fill="#D4D2E3"/>
</svg>
