<svg width="54" height="53" viewBox="0 0 54 53" fill="none" xmlns="http://www.w3.org/2000/svg">
<g style="mix-blend-mode:multiply">
<rect width="53.9966" height="52.3041" rx="10" transform="matrix(-1 0 0 1 53.9961 0)" fill="#D4D2E3"/>
</g>
<path d="M27.8182 37.9C34.5025 37.9 39.9212 32.3484 39.9212 25.5C39.9212 18.6517 34.5025 13.1 27.8182 13.1C21.1339 13.1 15.7152 18.6517 15.7152 25.5C15.7152 32.3484 21.1339 37.9 27.8182 37.9ZM27.8182 41C19.4628 41 12.6895 34.0603 12.6895 25.5C12.6895 16.9396 19.4628 10 27.8182 10C36.1735 10 42.9469 16.9396 42.9469 25.5C42.9469 34.0603 36.1735 41 27.8182 41ZM27.8182 31.7C31.1603 31.7 33.8697 28.9241 33.8697 25.5C33.8697 22.0758 31.1603 19.3 27.8182 19.3C24.476 19.3 21.7667 22.0758 21.7667 25.5C21.7667 28.9241 24.476 31.7 27.8182 31.7ZM27.8182 34.8C22.805 34.8 18.741 30.6362 18.741 25.5C18.741 20.3637 22.805 16.2 27.8182 16.2C32.8314 16.2 36.8954 20.3637 36.8954 25.5C36.8954 30.6362 32.8314 34.8 27.8182 34.8ZM27.8182 28.6C26.1471 28.6 24.7924 27.2121 24.7924 25.5C24.7924 23.7879 26.1471 22.4 27.8182 22.4C29.4893 22.4 30.8439 23.7879 30.8439 25.5C30.8439 27.2121 29.4893 28.6 27.8182 28.6Z" fill="black"/>
</svg>
