<svg width="320" height="105" viewBox="0 0 320 105" fill="none" xmlns="http://www.w3.org/2000/svg">
<path d="M320 96.5C320 92.0817 316.418 88.5 312 88.5C307.582 88.5 304 92.0817 304 96.5C304 100.918 307.582 104.5 312 104.5C316.418 104.5 320 100.918 320 96.5ZM10.0725 95C9.24411 95 8.57254 95.6716 8.57254 96.5C8.57254 97.3284 9.24411 98 10.0725 98L10.0725 95ZM312 95L10.0725 95L10.0725 98L312 98L312 95Z" fill="#D4D2E3"/>
<path d="M8.5 103.276C12.9183 103.276 16.5 99.6946 16.5 95.2764C16.5 90.8581 12.9183 87.2764 8.5 87.2764C4.08172 87.2764 0.5 90.8581 0.5 95.2764C0.5 99.6946 4.08172 103.276 8.5 103.276ZM8.5 15.9999C12.9183 15.9999 16.5 12.4181 16.5 7.99986C16.5 3.58158 12.9183 -0.000137329 8.5 -0.000137329C4.08172 -0.000137329 0.5 3.58158 0.5 7.99986C0.5 12.4181 4.08172 15.9999 8.5 15.9999ZM10 95.2764L10 7.99986H7L7 95.2764H10Z" fill="#D4D2E3"/>
</svg>
