<svg width="112" height="172" viewBox="0 0 112 172" fill="none" xmlns="http://www.w3.org/2000/svg">
<path d="M112 163.499C112 159.081 108.418 155.499 104 155.499C99.5817 155.499 96 159.081 96 163.499C96 167.917 99.5817 171.499 104 171.499C108.418 171.499 112 167.917 112 163.499ZM8.49741 161.999C7.66898 161.999 6.99741 162.671 6.99741 163.499C6.99741 164.327 7.66898 164.999 8.49741 164.999L8.49741 161.999ZM104 161.999L8.49741 161.999L8.49741 164.999L104 164.999L104 161.999Z" fill="#D4D2E3"/>
<path d="M8 169.351C12.4183 169.351 16 165.769 16 161.351C16 156.932 12.4183 153.351 8 153.351C3.58172 153.351 0 156.932 0 161.351C0 165.769 3.58172 169.351 8 169.351ZM8 16.0004C12.4183 16.0004 16 12.4186 16 8.00037C16 3.58209 12.4183 0.000366211 8 0.000366211C3.58172 0.000366211 0 3.58209 0 8.00037C0 12.4186 3.58172 16.0004 8 16.0004ZM9.5 161.351L9.5 8.00037H6.5L6.5 161.351H9.5Z" fill="#D4D2E3"/>
</svg>
