<svg width="161" height="141" viewBox="0 0 161 141" fill="none" xmlns="http://www.w3.org/2000/svg">
<path d="M80.5075 140.979C57.0693 140.979 33.6311 140.979 10.1929 140.979C9.04798 140.979 7.88825 140.979 6.73838 140.86C0.870606 140.313 -1.48835 136.36 1.01372 131.015C3.18514 126.401 5.55397 121.905 7.8537 117.34C18.7108 95.8461 29.5679 74.3556 40.425 52.8684C40.7606 52.2121 41.111 51.5557 41.5009 50.929C44.2349 46.5466 48.6764 45.9298 52.1754 49.71C54.6429 52.3552 56.7304 55.3261 58.9315 58.1934C70.1176 72.811 81.3037 87.4352 92.4898 102.066C97.3755 108.432 103.529 108.778 109.269 103.053C112.116 100.21 114.9 97.2937 117.782 94.4758C122.979 89.3927 128.876 89.6987 133.12 95.6257C141.638 107.519 149.944 119.571 158.289 131.582C158.941 132.525 159.441 133.564 159.769 134.662C160.579 137.421 159.434 139.641 156.636 140.377C154.881 140.797 153.08 140.991 151.276 140.954C127.7 140.994 104.11 141.002 80.5075 140.979Z" fill="#D4D2E3"/>
<path d="M133.071 23.2039C133.065 27.7916 131.697 32.2742 129.14 36.0834C126.583 39.8927 122.953 42.857 118.71 44.6006C114.466 46.3441 109.8 46.7885 105.304 45.8772C100.808 44.9659 96.6835 42.7401 93.4537 39.482C90.224 36.2238 88.0344 32.08 87.1626 27.5759C86.2907 23.0718 86.7759 18.4103 88.5566 14.1823C90.3373 9.95424 93.3333 6.35017 97.1648 3.82694C100.996 1.30372 105.491 -0.0250144 110.078 0.00918902C116.187 0.0868189 122.021 2.56182 126.322 6.90065C130.623 11.2395 133.047 17.0946 133.071 23.2039Z" fill="#D4D2E3"/>
</svg>
