<svg width="646" height="431" viewBox="0 0 646 431" fill="none" xmlns="http://www.w3.org/2000/svg">
<rect width="646" height="430.667" rx="25" fill="#F9F9FF"/>
<path d="M323.417 276.039C303.229 276.039 283.041 276.039 262.853 276.039C261.867 276.039 260.868 276.039 259.878 275.937C254.823 275.465 252.792 272.061 254.947 267.457C256.817 263.483 258.857 259.61 260.838 255.678C270.19 237.165 279.541 218.655 288.893 200.147C289.182 199.582 289.484 199.016 289.82 198.476C292.175 194.702 296 194.17 299.014 197.426C301.139 199.705 302.937 202.264 304.833 204.733C314.468 217.324 324.103 229.92 333.738 242.522C337.946 248.006 343.247 248.303 348.191 243.373C350.643 240.924 353.041 238.412 355.523 235.985C359.999 231.607 365.079 231.87 368.734 236.975C376.071 247.219 383.225 257.6 390.413 267.946C390.975 268.758 391.405 269.653 391.688 270.598C392.385 272.975 391.399 274.887 388.989 275.521C387.478 275.883 385.926 276.05 384.373 276.018C364.066 276.052 343.747 276.059 323.417 276.039Z" fill="#D4D2E3"/>
<path d="M368.692 174.596C368.687 178.547 367.508 182.408 365.306 185.689C363.104 188.97 359.977 191.524 356.322 193.026C352.667 194.527 348.648 194.91 344.776 194.125C340.903 193.34 337.35 191.423 334.568 188.617C331.786 185.81 329.901 182.241 329.15 178.362C328.399 174.482 328.817 170.467 330.35 166.825C331.884 163.184 334.465 160.079 337.765 157.906C341.065 155.733 344.936 154.588 348.888 154.617C354.149 154.684 359.174 156.816 362.879 160.553C366.583 164.291 368.671 169.334 368.692 174.596Z" fill="#D4D2E3"/>
</svg>
